<svg fill="none" height="512" viewBox="0 0 24 24" width="512" xmlns="http://www.w3.org/2000/svg"><g fill="rgb(0,0,0)"><path clip-rule="evenodd" d="m14.75 3c0-.2766-.1522-.53074-.3961-.66126-.2439-.13051-.5398-.11621-.7699.03722l-5.10943 3.40627c-.20054.1337-.38009.29135-.53588.46777h-3.93869c-1.51878 0-2.75 1.23122-2.75 2.75v6c0 1.5188 1.23122 2.75 2.75 2.75h3.93869c.15579.1764.33534.3341.53588.4678l5.10943 3.4062c.2301.1535.526.1678.7699.0373.2439-.1306.3961-.3847.3961-.6613zm-6 12.9296c0 .418.20888.8083.55662 1.0401l3.94338 2.6289v-15.19721l-3.94338 2.62891c-.34774.23184-.55662.62213-.55662 1.04007z" fill-rule="evenodd"/><path d="m17.3483 9.34835c.2929-.2929.7678-.2929 1.0607 0l1.591 1.59095 1.591-1.59095c.2929-.29289.7678-.29289 1.0606 0 .2929.2929.2929.76775 0 1.06065l-1.5909 1.591 1.5909 1.591c.2929.2929.2929.7678 0 1.0606-.2928.2929-.7677.2929-1.0606 0l-1.591-1.5909-1.591 1.591c-.2929.2928-.7678.2928-1.0607 0-.2928-.2929-.2928-.7678 0-1.0607l1.591-1.591-1.591-1.591c-.2928-.2929-.2928-.76776 0-1.06065z"/></g></svg>