<?xml version="1.0"?>
<svg xmlns="http://www.w3.org/2000/svg" xmlns:xlink="http://www.w3.org/1999/xlink" xmlns:svgjs="http://svgjs.com/svgjs" version="1.1" width="512" height="512" x="0" y="0" viewBox="0 0 24 24" style="enable-background:new 0 0 512 512" xml:space="preserve" class=""><g transform="matrix(1,0,0,1,0,0)"><path xmlns="http://www.w3.org/2000/svg" d="m12 1.25c-5.93706 0-10.75 4.81294-10.75 10.75 0 5.9371 4.81294 10.75 10.75 10.75 5.9371 0 10.75-4.8129 10.75-10.75 0-5.93706-4.8129-10.75-10.75-10.75z" fill="#8bc0ff" data-original="#f44336" style="" class=""/><g xmlns="http://www.w3.org/2000/svg" clip-rule="evenodd" fill-rule="evenodd"><path d="m14.25 8c.4142 0 .75.33579.75.75v6.5c0 .4142-.3358.75-.75.75s-.75-.3358-.75-.75v-6.5c0-.41421.3358-.75.75-.75z" fill="#2d79cc" data-original="#fafafa" style="" class=""/><path d="m12 1.25v21.5c-5.93706 0-10.75-4.8129-10.75-10.75 0-5.93706 4.81294-10.75 10.75-10.75z" fill="#bfdcff" data-original="#cc382d" style="" class=""/><path d="m9.75 8c.4142 0 .75.33579.75.75v6.5c0 .4142-.3358.75-.75.75-.41421 0-.75-.3358-.75-.75v-6.5c0-.41421.33579-.75.75-.75z" fill="#3897ff" data-original="#e5e6e8" style="" class=""/></g></g></svg>
