<?xml version="1.0"?>
<svg xmlns="http://www.w3.org/2000/svg" xmlns:xlink="http://www.w3.org/1999/xlink" xmlns:svgjs="http://svgjs.com/svgjs" version="1.1" width="512" height="512" x="0" y="0" viewBox="0 0 24 24" style="enable-background:new 0 0 512 512" xml:space="preserve" class=""><g><path xmlns="http://www.w3.org/2000/svg" d="m12 1.25c-5.93706 0-10.75 4.81294-10.75 10.75 0 5.9371 4.81294 10.75 10.75 10.75 5.9371 0 10.75-4.8129 10.75-10.75 0-5.93706-4.8129-10.75-10.75-10.75z" fill="#bfdcff" data-original="#4caf50" style="" class=""/><path xmlns="http://www.w3.org/2000/svg" clip-rule="evenodd" d="m22.75 12h-21.5c0 5.9371 4.81294 10.75 10.75 10.75 5.9371 0 10.75-4.8129 10.75-10.75z" fill="#8bc0ff" fill-rule="evenodd" data-original="#39943c" style="" class=""/><path xmlns="http://www.w3.org/2000/svg" d="m9.8975 6.364c-.2312-.1445-.52261-.15215-.76108-.01998-.23846.13217-.38642.38334-.38642.65598v10c0 .2726.14796.5238.38642.656.23847.1322.52988.1245.76108-.02l8-5c.2193-.1371.3525-.3774.3525-.636s-.1332-.4989-.3525-.636z" fill="#3897ff" data-original="#fafafa" style="" class=""/><path xmlns="http://www.w3.org/2000/svg" clip-rule="evenodd" d="m18.25 12h-9.5v5c0 .2726.14796.5238.38642.656.23847.1322.52988.1245.76108-.02l8-5c.2193-.1371.3525-.3774.3525-.636z" fill="#2d79cc" fill-rule="evenodd" data-original="#e5e6e8" style="" class=""/></g></svg>
