<?xml version="1.0"?>
<svg xmlns="http://www.w3.org/2000/svg" xmlns:xlink="http://www.w3.org/1999/xlink" xmlns:svgjs="http://svgjs.com/svgjs" version="1.1" width="512" height="512" x="0" y="0" viewBox="0 0 24 24" style="enable-background:new 0 0 512 512" xml:space="preserve" class=""><g transform="matrix(1,0,0,1,0,0)"><path xmlns="http://www.w3.org/2000/svg" clip-rule="evenodd" d="m11.4167 1.5286c.2603-.32217.7325-.37229 1.0547-.11195l2.25 1.81818c.1762.14239.2786.3568.2786.58335 0 .22654-.1024.44095-.2786.58334l-2.25 1.81818c-.3222.26034-.7944.21022-1.0547-.11195-.2604-.32217-.2103-.7944.1119-1.05474l.6-.48483h-.1286c-4.54926 0-8.25 3.72722-8.25 8.34092s3.70074 8.3409 8.25 8.3409c4.5493 0 8.25-3.7272 8.25-8.3409 0-2.9145-1.4776-5.47779-3.7159-6.96953-.3447-.22971-.4379-.69535-.2082-1.04003s.6953-.43788 1.04-.20817c2.6417 1.7605 4.3841 4.78487 4.3841 8.21773 0 5.4278-4.3581 9.8409-9.75 9.8409-5.39187 0-9.75-4.4131-9.75-9.8409 0-5.42787 4.35813-9.84092 9.75-9.84092h.1286l-.6-.48484c-.3222-.26034-.3723-.73256-.1119-1.05474z" fill="#c3b5a9" fill-rule="evenodd" data-original="#607d8b" style="" class=""/><path xmlns="http://www.w3.org/2000/svg" d="m10.4685 8.41436c-.2251-.18011-.53354-.21522-.79339-.09033s-.42511.38767-.42511.67598v7.99999c0 .2883.16526.5511.42511.676s.56829.0898.79339-.0903l5-4c.1779-.1424.2815-.3579.2815-.5857s-.1036-.4433-.2815-.5856z" fill="#c3b5a9" data-original="#4caf50" style="" class=""/><g xmlns="http://www.w3.org/2000/svg" clip-rule="evenodd" fill-rule="evenodd"><path d="m15.75 13h-6.5v4c0 .2883.16526.5511.42511.676s.56829.0898.79339-.0903l5-4c.1779-.1424.2815-.3579.2815-.5857z" fill="#c3b5a9" data-original="#39943c" style="" class=""/><path d="m21.7496 13c-.0483 5.3861-4.3879 9.75-9.7496 9.75-5.36171 0-9.70123-4.3639-9.74957-9.75h1.50007c.04823 4.5716 3.73018 8.25 8.2495 8.25 4.5194 0 8.2013-3.6784 8.2495-8.25z" fill="#c3b5a9" data-original="#486472" style="" class=""/></g></g></svg>
