<?xml version="1.0"?>
<svg xmlns="http://www.w3.org/2000/svg" xmlns:xlink="http://www.w3.org/1999/xlink" xmlns:svgjs="http://svgjs.com/svgjs" version="1.1" width="512" height="512" x="0" y="0" viewBox="0 0 24 24" style="enable-background:new 0 0 512 512" xml:space="preserve" class=""><g transform="matrix(-1,0,0,1,24.000001907348633,0)"><path xmlns="http://www.w3.org/2000/svg" d="m12.25 6c0-.28407-.1605-.54377-.4146-.67082-.2541-.12704-.5581-.09962-.7854.07082l-6.8 5.1v-4.5c0-.41421-.33579-.75-.75-.75s-.75.33579-.75.75v12c0 .4142.33579.75.75.75s.75-.3358.75-.75v-4.5l6.8 5.1c.2273.1705.5313.1979.7854.0708.2541-.127.4146-.3867.4146-.6708v-4.9055l7.8175 5.5182c.2289.1616.5288.1821.7775.0532.2488-.1289.405-.3857.405-.6659v-11.99999c0-.28019-.1562-.53701-.405-.66592-.2487-.1289-.5486-.10839-.7775.05319l-7.8175 5.51822z" fill="#000000" data-original="#000000" style=""/></g></svg>
