<?xml version="1.0"?>
<svg xmlns="http://www.w3.org/2000/svg" xmlns:xlink="http://www.w3.org/1999/xlink" xmlns:svgjs="http://svgjs.com/svgjs" version="1.1" width="512" height="512" x="0" y="0" viewBox="0 0 24 24" style="enable-background:new 0 0 512 512" xml:space="preserve" class=""><g><g xmlns="http://www.w3.org/2000/svg" fill="rgb(0,0,0)"><path clip-rule="evenodd" d="m14.75 3c0-.2766-.1522-.53074-.3961-.66126-.2439-.13051-.5398-.11621-.7699.03722l-5.10943 3.40627c-.20054.1337-.38009.29135-.53588.46777h-3.93869c-1.51878 0-2.75 1.23122-2.75 2.75v6c0 1.5188 1.23122 2.75 2.75 2.75h3.93869c.15579.1764.33534.3341.53588.4678l5.10943 3.4062c.2301.1535.526.1678.7699.0373.2439-.1306.3961-.3847.3961-.6613zm-6 12.9296c0 .418.20888.8083.55662 1.0401l3.94338 2.6289v-15.19721l-3.94338 2.62891c-.34774.23184-.55662.62213-.55662 1.04007z" fill-rule="evenodd" fill="#000000" data-original="#000000" style="" class=""/><path d="m16.3508 7.62452c.2073-.35856.6661-.48113 1.0247-.27376 1.4624.84574 2.3745 2.68374 2.3745 4.69134 0 1.9321-.843 3.6999-2.2038 4.5863-.347.2261-.8117.128-1.0378-.219-.226-.3471-.128-.8117.2191-1.0378.8467-.5516 1.5225-1.7883 1.5225-3.3295 0-1.6077-.7332-2.87681-1.6255-3.39286-.3585-.20737-.4811-.66615-.2737-1.02472z" fill="#000000" data-original="#000000" style="" class=""/><path d="m20.4394 6.39219c-.3357-.24267-.8045-.16727-1.0472.16842-.2427.33568-.1673.80453.1684 1.0472.9085.65679 1.6894 2.31765 1.6894 4.44479 0 2.0371-.7185 3.6588-1.5867 4.3658-.3212.2616-.3696.734-.108 1.0552.2615.3212.734.3695 1.0551.108 1.3393-1.0906 2.1396-3.2245 2.1396-5.529 0-2.39189-.8644-4.61496-2.3106-5.66041z" fill="#000000" data-original="#000000" style="" class=""/></g></g></svg>
