<?xml version="1.0" standalone="no"?><svg xmlns="http://www.w3.org/2000/svg" viewBox="0 0 1440 320"><path fill="#ffffff" fill-opacity="1" d="M0,64L21.8,64C43.6,64,87,64,131,90.7C174.5,117,218,171,262,181.3C305.5,192,349,160,393,149.3C436.4,139,480,149,524,160C567.3,171,611,181,655,208C698.2,235,742,277,785,272C829.1,267,873,213,916,186.7C960,160,1004,160,1047,181.3C1090.9,203,1135,245,1178,250.7C1221.8,256,1265,224,1309,192C1352.7,160,1396,128,1418,112L1440,96L1440,320L1418.2,320C1396.4,320,1353,320,1309,320C1265.5,320,1222,320,1178,320C1134.5,320,1091,320,1047,320C1003.6,320,960,320,916,320C872.7,320,829,320,785,320C741.8,320,698,320,655,320C610.9,320,567,320,524,320C480,320,436,320,393,320C349.1,320,305,320,262,320C218.2,320,175,320,131,320C87.3,320,44,320,22,320L0,320Z"></path></svg>